# xmcd
#
# Track frame offsets: 
#        150
#        26348
#        47955
#        83935
#        110410
#        130848
#        148720
#        175105
#        197155
#        219851
#        244217
#        272615
#        301331
#
# Disc length: 4549 seconds
#
# Revision: 0
# Processed by: cddbd v1.5.2PL0 Copyright (c) Steve Scherf et al.
# Submitted via: ExactAudioCopy v1.0b3
#
DISCID=b411c30d
DTITLE=Warrior Soul - Tough As Fuck - Live in Athens
DYEAR=2016
DGENRE=Hard Rock
TTITLE0=Fuck The Pigs
TTITLE1=Punk and Belligerent
TTITLE2=The Drug
TTITLE3=Let's Get Wasted
TTITLE4=Blown
TTITLE5=No No No
TTITLE6=Shine Like It
TTITLE7=Rotten Soul
TTITLE8=Payback's A Bitch
TTITLE9=Generation Graveyard
TTITLE10=Love Destruction
TTITLE11=Downtown
TTITLE12=Wasteland
EXTD=
EXTT0=
EXTT1=
EXTT2=
EXTT3=
EXTT4=
EXTT5=
EXTT6=
EXTT7=
EXTT8=
EXTT9=
EXTT10=
EXTT11=
EXTT12=
PLAYORDER=
